<svg width="979" height="1011" viewBox="0 0 979 1011" fill="none" xmlns="http://www.w3.org/2000/svg">
<g clip-path="url(#paint0_angular_858_1265_clip_path)" data-figma-skip-parse="true"><g transform="matrix(0.508767 0 5.65603e-09 0.43035 506.221 520.262)"><foreignObject x="-1033.85" y="-1033.85" width="2067.7" height="2067.7"><div xmlns="http://www.w3.org/1999/xhtml" style="background:conic-gradient(from 90deg,rgba(255, 255, 255, 0.4) 0deg,rgba(255, 255, 255, 1) 165deg,rgba(255, 255, 255, 0) 258.408deg,rgba(255, 255, 255, 0) 281.677deg,rgba(255, 255, 255, 0.4) 360deg);height:100%;width:100%;opacity:1"></div></foreignObject></g></g><path d="M385.19 83.2883C385.923 83.1335 386.391 82.4144 386.236 81.6822C386.081 80.9501 385.362 80.4821 384.629 80.637L384.91 81.9627L385.19 83.2883ZM593.584 76.7192C592.846 76.5926 592.146 77.0877 592.019 77.8253C591.893 78.5628 592.388 79.2634 593.125 79.3901L593.355 78.0547L593.584 76.7192ZM976.825 480.838H975.47C975.47 706.689 770.078 868.102 506.84 868.102V869.457V870.812C771.026 870.812 978.18 708.681 978.18 480.838H976.825ZM506.84 869.457V868.102C243.678 868.102 30.7027 684.628 30.7027 458.714H29.3477H27.9927C27.9927 686.494 242.579 870.812 506.84 870.812V869.457ZM29.3477 458.714H30.7027C30.7027 266.632 177.146 127.301 385.19 83.2883L384.91 81.9627L384.629 80.637C175.768 124.822 27.9927 264.954 27.9927 458.714H29.3477ZM593.355 78.0547L593.125 79.3901C811.322 116.871 975.47 282.486 975.47 480.838H976.825H978.18C978.18 280.864 812.759 114.368 593.584 76.7192L593.355 78.0547Z" data-figma-gradient-fill="{&#34;type&#34;:&#34;GRADIENT_ANGULAR&#34;,&#34;stops&#34;:[{&#34;color&#34;:{&#34;r&#34;:1.0,&#34;g&#34;:1.0,&#34;b&#34;:1.0,&#34;a&#34;:1.0},&#34;position&#34;:0.45833334326744080},{&#34;color&#34;:{&#34;r&#34;:1.0,&#34;g&#34;:1.0,&#34;b&#34;:1.0,&#34;a&#34;:0.0},&#34;position&#34;:0.71779906749725342},{&#34;color&#34;:{&#34;r&#34;:1.0,&#34;g&#34;:1.0,&#34;b&#34;:1.0,&#34;a&#34;:0.0},&#34;position&#34;:0.78243738412857056},{&#34;color&#34;:{&#34;r&#34;:1.0,&#34;g&#34;:1.0,&#34;b&#34;:1.0,&#34;a&#34;:0.40000000596046448},&#34;position&#34;:1.0}],&#34;stopsVar&#34;:[],&#34;transform&#34;:{&#34;m00&#34;:1017.533691406250,&#34;m01&#34;:1.1312065907986835e-05,&#34;m02&#34;:-2.5453965663909912,&#34;m10&#34;:-6.6180166815449359e-13,&#34;m11&#34;:860.70050048828125,&#34;m12&#34;:89.912025451660156},&#34;opacity&#34;:1.0,&#34;blendMode&#34;:&#34;NORMAL&#34;,&#34;visible&#34;:true}"/>
<g clip-path="url(#paint1_angular_858_1265_clip_path)" data-figma-skip-parse="true"><g transform="matrix(0.508767 0 5.65603e-09 0.43035 505.729 443.563)"><foreignObject x="-1033.85" y="-1033.85" width="2067.7" height="2067.7"><div xmlns="http://www.w3.org/1999/xhtml" style="background:conic-gradient(from 90deg,rgba(255, 255, 255, 0.4) 0deg,rgba(255, 255, 255, 1) 165deg,rgba(255, 255, 255, 0) 258.408deg,rgba(255, 255, 255, 0) 281.677deg,rgba(255, 255, 255, 0.4) 360deg);height:100%;width:100%;opacity:1"></div></foreignObject></g></g><path d="M384.698 6.58912C385.43 6.43423 385.898 5.71516 385.743 4.98301C385.588 4.25087 384.869 3.78291 384.137 3.9378L384.417 5.26346L384.698 6.58912ZM593.092 0.0200276C592.354 -0.106664 591.653 0.38853 591.527 1.12607C591.4 1.86362 591.895 2.56422 592.633 2.69091L592.862 1.35547L593.092 0.0200276ZM976.333 404.139H974.978C974.978 630.053 762.002 813.527 498.84 813.527V814.882V816.237C763.102 816.237 977.688 631.919 977.688 404.139H976.333ZM498.84 814.882V813.527C235.678 813.527 22.7027 630.053 22.7027 404.139H21.3477H19.9927C19.9927 631.919 234.579 816.237 498.84 816.237V814.882ZM21.3477 404.139H22.7027C22.7027 212.002 176.719 50.5876 384.698 6.58912L384.417 5.26346L384.137 3.9378C175.21 48.137 19.9927 210.434 19.9927 404.139H21.3477ZM592.862 1.35547L592.633 2.69091C810.829 40.1716 974.978 205.787 974.978 404.139H976.333H977.688C977.688 204.165 812.266 37.6688 593.092 0.0200276L592.862 1.35547Z" data-figma-gradient-fill="{&#34;type&#34;:&#34;GRADIENT_ANGULAR&#34;,&#34;stops&#34;:[{&#34;color&#34;:{&#34;r&#34;:1.0,&#34;g&#34;:1.0,&#34;b&#34;:1.0,&#34;a&#34;:1.0},&#34;position&#34;:0.45833334326744080},{&#34;color&#34;:{&#34;r&#34;:1.0,&#34;g&#34;:1.0,&#34;b&#34;:1.0,&#34;a&#34;:0.0},&#34;position&#34;:0.71779906749725342},{&#34;color&#34;:{&#34;r&#34;:1.0,&#34;g&#34;:1.0,&#34;b&#34;:1.0,&#34;a&#34;:0.0},&#34;position&#34;:0.78243738412857056},{&#34;color&#34;:{&#34;r&#34;:1.0,&#34;g&#34;:1.0,&#34;b&#34;:1.0,&#34;a&#34;:0.40000000596046448},&#34;position&#34;:1.0}],&#34;stopsVar&#34;:[],&#34;transform&#34;:{&#34;m00&#34;:1017.5337524414062,&#34;m01&#34;:1.1312060451018624e-05,&#34;m02&#34;:-3.0379498004913330,&#34;m10&#34;:-6.6180177657471084e-13,&#34;m11&#34;:860.700683593750,&#34;m12&#34;:13.212809562683105},&#34;opacity&#34;:1.0,&#34;blendMode&#34;:&#34;NORMAL&#34;,&#34;visible&#34;:true}"/>
<g clip-path="url(#paint2_angular_858_1265_clip_path)" data-figma-skip-parse="true"><g transform="matrix(0.508767 0 5.65603e-09 0.428741 505.729 540.823)"><foreignObject x="-1033.87" y="-1033.87" width="2067.75" height="2067.75"><div xmlns="http://www.w3.org/1999/xhtml" style="background:conic-gradient(from 90deg,rgba(255, 255, 255, 0.4) 0deg,rgba(255, 255, 255, 1) 165deg,rgba(255, 255, 255, 0) 258.408deg,rgba(255, 255, 255, 0) 281.677deg,rgba(255, 255, 255, 0.4) 360deg);height:100%;width:100%;opacity:1"></div></foreignObject></g></g><path d="M609.363 98.9417C608.63 98.7926 607.915 99.2662 607.766 99.9996C607.617 100.733 608.09 101.448 608.823 101.597L609.094 100.27L609.363 98.9417ZM374.472 104.728C375.201 104.559 375.655 103.831 375.486 103.102C375.317 102.373 374.589 101.919 373.86 102.088L374.166 103.408L374.472 104.728ZM976.333 500.01H974.978C974.978 725.924 762.002 909.398 498.84 909.398V910.753V912.108C763.102 912.108 977.688 727.79 977.688 500.01H976.333ZM498.84 910.753V909.398C235.678 909.398 22.7027 725.924 22.7027 500.01H21.3477H19.9927C19.9927 727.79 234.579 912.108 498.84 912.108V910.753ZM609.094 100.27L608.823 101.597C818.903 144.311 974.978 306.594 974.978 500.01H976.333H977.688C977.688 305.016 820.398 141.849 609.363 98.9417L609.094 100.27ZM21.3477 500.01H22.7027C22.7027 311.035 171.688 151.783 374.472 104.728L374.166 103.408L373.86 102.088C170.143 149.359 19.9927 309.495 19.9927 500.01H21.3477Z" data-figma-gradient-fill="{&#34;type&#34;:&#34;GRADIENT_ANGULAR&#34;,&#34;stops&#34;:[{&#34;color&#34;:{&#34;r&#34;:1.0,&#34;g&#34;:1.0,&#34;b&#34;:1.0,&#34;a&#34;:1.0},&#34;position&#34;:0.45833334326744080},{&#34;color&#34;:{&#34;r&#34;:1.0,&#34;g&#34;:1.0,&#34;b&#34;:1.0,&#34;a&#34;:0.0},&#34;position&#34;:0.71779906749725342},{&#34;color&#34;:{&#34;r&#34;:1.0,&#34;g&#34;:1.0,&#34;b&#34;:1.0,&#34;a&#34;:0.0},&#34;position&#34;:0.78243738412857056},{&#34;color&#34;:{&#34;r&#34;:1.0,&#34;g&#34;:1.0,&#34;b&#34;:1.0,&#34;a&#34;:0.40000000596046448},&#34;position&#34;:1.0}],&#34;stopsVar&#34;:[],&#34;transform&#34;:{&#34;m00&#34;:1017.5337524414062,&#34;m01&#34;:1.1312060451018624e-05,&#34;m02&#34;:-3.0379498004913330,&#34;m10&#34;:-6.5932621775427469e-13,&#34;m11&#34;:857.48101806640625,&#34;m12&#34;:112.082519531250},&#34;opacity&#34;:1.0,&#34;blendMode&#34;:&#34;NORMAL&#34;,&#34;visible&#34;:true}"/>
<g clip-path="url(#paint3_angular_858_1265_clip_path)" data-figma-skip-parse="true"><g transform="matrix(0.508767 0 5.65603e-09 0.42743 505.729 553.524)"><foreignObject x="-1033.89" y="-1033.89" width="2067.79" height="2067.79"><div xmlns="http://www.w3.org/1999/xhtml" style="background:conic-gradient(from 90deg,rgba(255, 255, 255, 0.4) 0deg,rgba(255, 255, 255, 1) 165deg,rgba(255, 255, 255, 0) 258.408deg,rgba(255, 255, 255, 0) 281.677deg,rgba(255, 255, 255, 0.4) 360deg);height:100%;width:100%;opacity:1"></div></foreignObject></g></g><path d="M358.282 120.323C359.006 120.131 359.437 119.389 359.245 118.666C359.053 117.942 358.311 117.511 357.588 117.703L357.935 119.013L358.282 120.323ZM620.926 112.995C620.196 112.83 619.47 113.288 619.305 114.017C619.14 114.747 619.598 115.473 620.328 115.638L620.627 114.316L620.926 112.995ZM976.333 511.58H974.978C974.978 737.575 753.42 949.503 490.348 949.503V950.858V952.213C754.7 952.213 977.688 739.279 977.688 511.58H976.333ZM490.348 950.858V949.503C227.186 949.503 14.2105 766.029 14.2105 540.114H12.8555H11.5005C11.5005 767.894 226.086 952.213 490.348 952.213V950.858ZM12.8555 540.114H14.2105C14.2105 356.138 163.878 171.896 358.282 120.323L357.935 119.013L357.588 117.703C162.128 169.557 11.5005 354.777 11.5005 540.114H12.8555ZM620.627 114.316L620.328 115.638C824.579 161.847 974.978 321.712 974.978 511.58H976.333H977.688C977.688 320.164 826.115 159.416 620.926 112.995L620.627 114.316Z" data-figma-gradient-fill="{&#34;type&#34;:&#34;GRADIENT_ANGULAR&#34;,&#34;stops&#34;:[{&#34;color&#34;:{&#34;r&#34;:1.0,&#34;g&#34;:1.0,&#34;b&#34;:1.0,&#34;a&#34;:1.0},&#34;position&#34;:0.45833334326744080},{&#34;color&#34;:{&#34;r&#34;:1.0,&#34;g&#34;:1.0,&#34;b&#34;:1.0,&#34;a&#34;:0.0},&#34;position&#34;:0.71779906749725342},{&#34;color&#34;:{&#34;r&#34;:1.0,&#34;g&#34;:1.0,&#34;b&#34;:1.0,&#34;a&#34;:0.0},&#34;position&#34;:0.78243738412857056},{&#34;color&#34;:{&#34;r&#34;:1.0,&#34;g&#34;:1.0,&#34;b&#34;:1.0,&#34;a&#34;:0.40000000596046448},&#34;position&#34;:1.0}],&#34;stopsVar&#34;:[],&#34;transform&#34;:{&#34;m00&#34;:1017.5338134765625,&#34;m01&#34;:1.1312060451018624e-05,&#34;m02&#34;:-3.0375833511352539,&#34;m10&#34;:-6.5731133643692763e-13,&#34;m11&#34;:854.8605957031250,&#34;m12&#34;:126.09329223632812},&#34;opacity&#34;:1.0,&#34;blendMode&#34;:&#34;NORMAL&#34;,&#34;visible&#34;:true}"/>
<g clip-path="url(#paint4_angular_858_1265_clip_path)" data-figma-skip-parse="true"><g transform="matrix(0.508767 0 5.65603e-09 0.42517 505.729 571.385)"><foreignObject x="-1035.04" y="-1035.04" width="2070.08" height="2070.08"><div xmlns="http://www.w3.org/1999/xhtml" style="background:conic-gradient(from 90deg,rgba(255, 255, 255, 0.4) 0deg,rgba(255, 255, 255, 1) 165deg,rgba(255, 255, 255, 0) 258.408deg,rgba(255, 255, 255, 0) 281.677deg,rgba(255, 255, 255, 0.4) 360deg);height:100%;width:100%;opacity:1"></div></foreignObject></g></g><path d="M638.483 133.189C637.759 133 637.018 133.433 636.829 134.157C636.639 134.881 637.072 135.621 637.796 135.811L638.139 134.5L638.483 133.189ZM340.814 141.19C341.531 140.973 341.936 140.217 341.719 139.5C341.503 138.784 340.746 138.379 340.03 138.596L340.422 139.893L340.814 141.19ZM976.333 527.49H974.978C974.978 640.472 916.743 760.459 825.522 852.229C734.31 943.989 610.268 1007.39 478.848 1007.39V1008.74V1010.1C611.14 1010.1 735.84 946.294 827.444 854.14C919.037 761.996 977.688 641.357 977.688 527.49H976.333ZM478.848 1008.74V1007.39C215.686 1007.39 2.71047 823.914 2.71047 597.999H1.35547H0.000468731C0.000468731 825.779 214.586 1010.1 478.848 1010.1V1008.74ZM638.139 134.5L637.796 135.811C833.101 186.971 974.978 343.077 974.978 527.49H976.333H977.688C977.688 341.576 834.698 184.588 638.483 133.189L638.139 134.5ZM1.35547 597.999H2.71047C2.71047 508.814 40.8791 408.611 102.295 323.662C163.708 238.715 248.249 169.184 340.814 141.19L340.422 139.893L340.03 138.596C246.749 166.806 161.757 236.788 100.098 322.074C38.442 407.356 0.000468731 508.104 0.000468731 597.999H1.35547Z" data-figma-gradient-fill="{&#34;type&#34;:&#34;GRADIENT_ANGULAR&#34;,&#34;stops&#34;:[{&#34;color&#34;:{&#34;r&#34;:1.0,&#34;g&#34;:1.0,&#34;b&#34;:1.0,&#34;a&#34;:1.0},&#34;position&#34;:0.45833334326744080},{&#34;color&#34;:{&#34;r&#34;:1.0,&#34;g&#34;:1.0,&#34;b&#34;:1.0,&#34;a&#34;:0.0},&#34;position&#34;:0.71779906749725342},{&#34;color&#34;:{&#34;r&#34;:1.0,&#34;g&#34;:1.0,&#34;b&#34;:1.0,&#34;a&#34;:0.0},&#34;position&#34;:0.78243738412857056},{&#34;color&#34;:{&#34;r&#34;:1.0,&#34;g&#34;:1.0,&#34;b&#34;:1.0,&#34;a&#34;:0.40000000596046448},&#34;position&#34;:1.0}],&#34;stopsVar&#34;:[],&#34;transform&#34;:{&#34;m00&#34;:1017.5338745117188,&#34;m01&#34;:1.1312066817481536e-05,&#34;m02&#34;:-3.0375835895538330,&#34;m10&#34;:-6.5383570953259085e-13,&#34;m11&#34;:850.340332031250,&#34;m12&#34;:146.21461486816406},&#34;opacity&#34;:1.0,&#34;blendMode&#34;:&#34;NORMAL&#34;,&#34;visible&#34;:true}"/>
<defs>
<clipPath id="paint0_angular_858_1265_clip_path"><path d="M385.19 83.2883C385.923 83.1335 386.391 82.4144 386.236 81.6822C386.081 80.9501 385.362 80.4821 384.629 80.637L384.91 81.9627L385.19 83.2883ZM593.584 76.7192C592.846 76.5926 592.146 77.0877 592.019 77.8253C591.893 78.5628 592.388 79.2634 593.125 79.3901L593.355 78.0547L593.584 76.7192ZM976.825 480.838H975.47C975.47 706.689 770.078 868.102 506.84 868.102V869.457V870.812C771.026 870.812 978.18 708.681 978.18 480.838H976.825ZM506.84 869.457V868.102C243.678 868.102 30.7027 684.628 30.7027 458.714H29.3477H27.9927C27.9927 686.494 242.579 870.812 506.84 870.812V869.457ZM29.3477 458.714H30.7027C30.7027 266.632 177.146 127.301 385.19 83.2883L384.91 81.9627L384.629 80.637C175.768 124.822 27.9927 264.954 27.9927 458.714H29.3477ZM593.355 78.0547L593.125 79.3901C811.322 116.871 975.47 282.486 975.47 480.838H976.825H978.18C978.18 280.864 812.759 114.368 593.584 76.7192L593.355 78.0547Z"/></clipPath><clipPath id="paint1_angular_858_1265_clip_path"><path d="M384.698 6.58912C385.43 6.43423 385.898 5.71516 385.743 4.98301C385.588 4.25087 384.869 3.78291 384.137 3.9378L384.417 5.26346L384.698 6.58912ZM593.092 0.0200276C592.354 -0.106664 591.653 0.38853 591.527 1.12607C591.4 1.86362 591.895 2.56422 592.633 2.69091L592.862 1.35547L593.092 0.0200276ZM976.333 404.139H974.978C974.978 630.053 762.002 813.527 498.84 813.527V814.882V816.237C763.102 816.237 977.688 631.919 977.688 404.139H976.333ZM498.84 814.882V813.527C235.678 813.527 22.7027 630.053 22.7027 404.139H21.3477H19.9927C19.9927 631.919 234.579 816.237 498.84 816.237V814.882ZM21.3477 404.139H22.7027C22.7027 212.002 176.719 50.5876 384.698 6.58912L384.417 5.26346L384.137 3.9378C175.21 48.137 19.9927 210.434 19.9927 404.139H21.3477ZM592.862 1.35547L592.633 2.69091C810.829 40.1716 974.978 205.787 974.978 404.139H976.333H977.688C977.688 204.165 812.266 37.6688 593.092 0.0200276L592.862 1.35547Z"/></clipPath><clipPath id="paint2_angular_858_1265_clip_path"><path d="M609.363 98.9417C608.63 98.7926 607.915 99.2662 607.766 99.9996C607.617 100.733 608.09 101.448 608.823 101.597L609.094 100.27L609.363 98.9417ZM374.472 104.728C375.201 104.559 375.655 103.831 375.486 103.102C375.317 102.373 374.589 101.919 373.86 102.088L374.166 103.408L374.472 104.728ZM976.333 500.01H974.978C974.978 725.924 762.002 909.398 498.84 909.398V910.753V912.108C763.102 912.108 977.688 727.79 977.688 500.01H976.333ZM498.84 910.753V909.398C235.678 909.398 22.7027 725.924 22.7027 500.01H21.3477H19.9927C19.9927 727.79 234.579 912.108 498.84 912.108V910.753ZM609.094 100.27L608.823 101.597C818.903 144.311 974.978 306.594 974.978 500.01H976.333H977.688C977.688 305.016 820.398 141.849 609.363 98.9417L609.094 100.27ZM21.3477 500.01H22.7027C22.7027 311.035 171.688 151.783 374.472 104.728L374.166 103.408L373.86 102.088C170.143 149.359 19.9927 309.495 19.9927 500.01H21.3477Z"/></clipPath><clipPath id="paint3_angular_858_1265_clip_path"><path d="M358.282 120.323C359.006 120.131 359.437 119.389 359.245 118.666C359.053 117.942 358.311 117.511 357.588 117.703L357.935 119.013L358.282 120.323ZM620.926 112.995C620.196 112.83 619.47 113.288 619.305 114.017C619.14 114.747 619.598 115.473 620.328 115.638L620.627 114.316L620.926 112.995ZM976.333 511.58H974.978C974.978 737.575 753.42 949.503 490.348 949.503V950.858V952.213C754.7 952.213 977.688 739.279 977.688 511.58H976.333ZM490.348 950.858V949.503C227.186 949.503 14.2105 766.029 14.2105 540.114H12.8555H11.5005C11.5005 767.894 226.086 952.213 490.348 952.213V950.858ZM12.8555 540.114H14.2105C14.2105 356.138 163.878 171.896 358.282 120.323L357.935 119.013L357.588 117.703C162.128 169.557 11.5005 354.777 11.5005 540.114H12.8555ZM620.627 114.316L620.328 115.638C824.579 161.847 974.978 321.712 974.978 511.58H976.333H977.688C977.688 320.164 826.115 159.416 620.926 112.995L620.627 114.316Z"/></clipPath><clipPath id="paint4_angular_858_1265_clip_path"><path d="M638.483 133.189C637.759 133 637.018 133.433 636.829 134.157C636.639 134.881 637.072 135.621 637.796 135.811L638.139 134.5L638.483 133.189ZM340.814 141.19C341.531 140.973 341.936 140.217 341.719 139.5C341.503 138.784 340.746 138.379 340.03 138.596L340.422 139.893L340.814 141.19ZM976.333 527.49H974.978C974.978 640.472 916.743 760.459 825.522 852.229C734.31 943.989 610.268 1007.39 478.848 1007.39V1008.74V1010.1C611.14 1010.1 735.84 946.294 827.444 854.14C919.037 761.996 977.688 641.357 977.688 527.49H976.333ZM478.848 1008.74V1007.39C215.686 1007.39 2.71047 823.914 2.71047 597.999H1.35547H0.000468731C0.000468731 825.779 214.586 1010.1 478.848 1010.1V1008.74ZM638.139 134.5L637.796 135.811C833.101 186.971 974.978 343.077 974.978 527.49H976.333H977.688C977.688 341.576 834.698 184.588 638.483 133.189L638.139 134.5ZM1.35547 597.999H2.71047C2.71047 508.814 40.8791 408.611 102.295 323.662C163.708 238.715 248.249 169.184 340.814 141.19L340.422 139.893L340.03 138.596C246.749 166.806 161.757 236.788 100.098 322.074C38.442 407.356 0.000468731 508.104 0.000468731 597.999H1.35547Z"/></clipPath></defs>
</svg>
